<svg xmlns="http://www.w3.org/2000/svg" viewBox="0 0 582.5 450.5"><defs><style>.cls-1,.cls-2{fill:#e02727;}.cls-2{stroke:#fff;stroke-miterlimit:10;stroke-width:32px;}.cls-3{fill:#fff;}</style></defs><title>lightmodelikeiconred2</title><g id="Layer_2" data-name="Layer 2"><polyline class="cls-1" points="285 412.5 309 412.5 309 106 280 106 285 412.5 285 412.5 285 412.5 285 412.5 285 412.5 285 412.5 285 412.5 285 412.5 285 412.5 285 412.5 285 412.5 285 412.5 285 412.5 285 412.5 285 412.5 285 412.5 285 412.5 285 412.5 285 412.5 285 412.5 285 412.5"/></g><g id="Layer_1" data-name="Layer 1"><path class="cls-2" d="M291.05,431.5C140.67,339.05,16,247,16,132.27,16,47,58.31,16,142.05,16c60.32,0,135.64,28.4,149.45,66"/><path class="cls-2" d="M291.45,431.5C441.83,339.05,566.5,247,566.5,132.27,566.5,47,524.19,16,440.5,16c-60.32,0-135.64,28.4-149.45,66"/><path class="cls-3" d="M305.56,87.5l-29.39-.27L271,74.91l38,2A30.72,30.72,0,0,0,305.56,87.5Z"/><path class="cls-3" d="M285,412.5"/><path class="cls-3" d="M261,431.5l30,19c23.51-13.67,28.7-18.48,28-20-.88-1.93-11.1,1.76-19,0-.74-.16-3.05.43-6,0a20.55,20.55,0,0,1-4-1,59.08,59.08,0,0,0-10.37-.94A59.83,59.83,0,0,0,261,431.5Z"/></g></svg>