<svg xmlns="http://www.w3.org/2000/svg" viewBox="0 0 582.5 450.5"><defs><style>.cls-1,.cls-2{fill:#e02727;}.cls-2{stroke:#000;stroke-miterlimit:10;stroke-width:32px;}.cls-3{fill:#fff;}</style></defs><title>likeiconred2</title><g id="Layer_3" data-name="Layer 3"><polygon class="cls-1" points="226 344.5 290 431.5 371 344.5 359 142.5 223 142.5 226 344.5"/></g><g id="Layer_1" data-name="Layer 1"><path class="cls-2" d="M292.05,433C141.67,340.55,17,248.5,17,133.77,17,48.5,59.31,17.5,143.05,17.5c60.32,0,135.64,28.4,149.45,66" transform="translate(-1 -1.5)"/><path class="cls-2" d="M292.45,433C442.83,340.55,567.5,248.5,567.5,133.77c0-85.27-42.31-116.27-126-116.27-60.32,0-135.64,28.4-149.45,66" transform="translate(-1 -1.5)"/></g><g id="Layer_2" data-name="Layer 2"><path d="M306.56,89l-29.39-.27L272,76.41l38,2A30.84,30.84,0,0,0,306.56,89Z" transform="translate(-1 -1.5)"/><path class="cls-3" d="M286,414" transform="translate(-1 -1.5)"/><path d="M262,433l30,19c23.51-13.67,28.7-18.48,28-20-.88-1.93-11.1,1.76-19,0-.74-.16-3.05.43-6,0a20.47,20.47,0,0,1-4-1,59.23,59.23,0,0,0-10.37-.94A59.92,59.92,0,0,0,262,433Z" transform="translate(-1 -1.5)"/></g></svg>