<?xml version="1.0" encoding="UTF-8" standalone="no"?>
<!-- Created with Inkscape (http://www.inkscape.org/) -->

<svg
   width="210mm"
   height="297mm"
   viewBox="0 0 210 297"
   version="1.1"
   id="svg5"
   xmlns="http://www.w3.org/2000/svg"
   xmlnsSvg="http://www.w3.org/2000/svg">
  <defs
     id="defs2" />
  <g
     id="layer7">
    <path
       style="fill:none;stroke:#ffffff;stroke-width:7.9375;stroke-linecap:butt;stroke-linejoin:miter;stroke-opacity:1;stroke-miterlimit:4;stroke-dasharray:none"
       d="M 151.80361,182.46021 H 52.088515 c 0,0 1.341652,-15.06079 7.717464,-19.59702 6.375813,-4.53623 5.352548,-15.52914 5.352548,-42.32607 0,-19.91193 23.146763,-26.998145 29.064989,-27.29751 -1.999644,-3.18453 -1.606482,-8.703703 9.431794,-8.703703 11.03828,0 10.45591,5.213765 8.58436,8.761596 5.75137,-0.01073 25.58963,5.25193 26.49394,27.239617 1.44197,12.37586 -0.21373,38.06298 5.70517,42.74244 6.97387,4.95706 7.36482,19.18065 7.36482,19.18065 z"
       id="path25863" />
  </g>
  <g
     id="layer8">
    <path
       style="fill:none;stroke:#ffffff;stroke-width:7.9375;stroke-linecap:butt;stroke-linejoin:miter;stroke-opacity:1;stroke-miterlimit:4;stroke-dasharray:none"
       d="m 85.866681,195.07811 h 33.655009 c 0,0 0.0197,15.08555 -16.74162,15.03624 -17.151323,-0.0505 -16.913389,-15.03624 -16.913389,-15.03624 z"
       id="path28421" />
  </g>
</svg>
